<svg width="20" height="20" viewBox="0 0 20 20" fill="none" xmlns="http://www.w3.org/2000/svg">
<g id="icon/add">
<mask id="mask0_6_348" style="mask-type:alpha" maskUnits="userSpaceOnUse" x="0" y="0" width="20" height="20">
<rect id="Bounding box" width="20" height="20" fill="#D9D9D9"/>
</mask>
<g mask="url(#mask0_6_348)">
<path id="add" d="M9.16669 10.8333H5.00002C4.76391 10.8333 4.56599 10.7535 4.40627 10.5937C4.24655 10.434 4.16669 10.2361 4.16669 9.99999C4.16669 9.76388 4.24655 9.56596 4.40627 9.40624C4.56599 9.24652 4.76391 9.16666 5.00002 9.16666H9.16669V4.99999C9.16669 4.76388 9.24655 4.56596 9.40627 4.40624C9.56599 4.24652 9.76391 4.16666 10 4.16666C10.2361 4.16666 10.434 4.24652 10.5938 4.40624C10.7535 4.56596 10.8334 4.76388 10.8334 4.99999V9.16666H15C15.2361 9.16666 15.434 9.24652 15.5938 9.40624C15.7535 9.56596 15.8334 9.76388 15.8334 9.99999C15.8334 10.2361 15.7535 10.434 15.5938 10.5937C15.434 10.7535 15.2361 10.8333 15 10.8333H10.8334V15C10.8334 15.2361 10.7535 15.434 10.5938 15.5937C10.434 15.7535 10.2361 15.8333 10 15.8333C9.76391 15.8333 9.56599 15.7535 9.40627 15.5937C9.24655 15.434 9.16669 15.2361 9.16669 15V10.8333Z" fill="#1C1B1F"/>
</g>
</g>
</svg>
