<svg width="18" height="18" viewBox="0 0 18 18" fill="none" xmlns="http://www.w3.org/2000/svg">
<mask id="mask0_74_870" style="mask-type:alpha" maskUnits="userSpaceOnUse" x="0" y="0" width="18" height="18">
<rect width="18" height="18" fill="#D9D9D9"/>
</mask>
<g mask="url(#mask0_74_870)">
<path d="M12.1496 5.90623L5.02461 13.0312C4.88711 13.1687 4.73086 13.2344 4.55586 13.2281C4.38086 13.2219 4.22461 13.15 4.08711 13.0125C3.94961 12.875 3.88086 12.7156 3.88086 12.5344C3.88086 12.3531 3.94961 12.1937 4.08711 12.0562L11.1934 4.94998H7.87461C7.68336 4.94998 7.52305 4.88567 7.39367 4.75706C7.2643 4.62843 7.19961 4.46906 7.19961 4.27893C7.19961 4.08879 7.2643 3.9281 7.39367 3.79685C7.52305 3.6656 7.68336 3.59998 7.87461 3.59998H12.8246C13.0159 3.59998 13.1762 3.66466 13.3055 3.79404C13.4349 3.92341 13.4996 4.08373 13.4996 4.27498V9.22498C13.4996 9.41623 13.4353 9.57654 13.3067 9.70591C13.1781 9.83529 13.0187 9.89998 12.8286 9.89998C12.6384 9.89998 12.4777 9.83529 12.3465 9.70591C12.2152 9.57654 12.1496 9.41623 12.1496 9.22498V5.90623Z" fill="#E4E1E6"/>
</g>
</svg>
