<svg width="20" height="20" viewBox="0 0 20 20" fill="none" xmlns="http://www.w3.org/2000/svg">
<g id="icon/close_small">
<mask id="mask0_10_649" style="mask-type:alpha" maskUnits="userSpaceOnUse" x="0" y="0" width="20" height="20">
<rect id="Bounding box" width="20" height="20" fill="#D9D9D9"/>
</mask>
<g mask="url(#mask0_10_649)">
<path id="close_small" d="M10 11.1667L7.58333 13.5833C7.43056 13.7361 7.23611 13.8125 7 13.8125C6.76389 13.8125 6.56944 13.7361 6.41667 13.5833C6.26389 13.4306 6.1875 13.2361 6.1875 13C6.1875 12.7639 6.26389 12.5695 6.41667 12.4167L8.83333 10L6.41667 7.60418C6.26389 7.4514 6.1875 7.25695 6.1875 7.02084C6.1875 6.78473 6.26389 6.59029 6.41667 6.43751C6.56944 6.28473 6.76389 6.20834 7 6.20834C7.23611 6.20834 7.43056 6.28473 7.58333 6.43751L10 8.85418L12.3958 6.43751C12.5486 6.28473 12.7431 6.20834 12.9792 6.20834C13.2153 6.20834 13.4097 6.28473 13.5625 6.43751C13.7292 6.60418 13.8125 6.80209 13.8125 7.03126C13.8125 7.26043 13.7292 7.4514 13.5625 7.60418L11.1458 10L13.5625 12.4167C13.7153 12.5695 13.7917 12.7639 13.7917 13C13.7917 13.2361 13.7153 13.4306 13.5625 13.5833C13.3958 13.75 13.1979 13.8333 12.9688 13.8333C12.7396 13.8333 12.5486 13.75 12.3958 13.5833L10 11.1667Z" fill="#1C1B1F"/>
</g>
</g>
</svg>
