<svg width="20" height="20" viewBox="0 0 20 20" fill="none" xmlns="http://www.w3.org/2000/svg">
<g id="icon/pace">
<mask id="mask0_6_602" style="mask-type:alpha" maskUnits="userSpaceOnUse" x="0" y="0" width="20" height="20">
<rect id="Bounding box" width="20" height="20" fill="#D9D9D9"/>
</mask>
<g mask="url(#mask0_6_602)">
<path id="pace" d="M9.99996 18.3333C8.84718 18.3333 7.76385 18.1146 6.74996 17.6771C5.73607 17.2396 4.85413 16.6458 4.10413 15.8958C3.35413 15.1458 2.76038 14.2639 2.32288 13.25C1.88538 12.2361 1.66663 11.1528 1.66663 9.99999C1.66663 8.84721 1.88538 7.76388 2.32288 6.74999C2.76038 5.7361 3.35413 4.85416 4.10413 4.10416C4.85413 3.35416 5.73607 2.76041 6.74996 2.32291C7.76385 1.88541 8.84718 1.66666 9.99996 1.66666C11.1527 1.66666 12.2361 1.88541 13.25 2.32291C14.2638 2.76041 15.1458 3.35416 15.8958 4.10416C16.6458 4.85416 17.2395 5.7361 17.677 6.74999C18.1145 7.76388 18.3333 8.84721 18.3333 9.99999C18.3333 10.375 18.3125 10.743 18.2708 11.1042C18.2291 11.4653 18.1597 11.8194 18.0625 12.1667C17.868 11.9444 17.6423 11.7569 17.3854 11.6042C17.1284 11.4514 16.8472 11.3472 16.5416 11.2917C16.5833 11.0833 16.6145 10.8715 16.6354 10.6562C16.6562 10.441 16.6666 10.2222 16.6666 9.99999C16.6666 8.13888 16.0208 6.56249 14.7291 5.27082C13.4375 3.97916 11.8611 3.33332 9.99996 3.33332C8.13885 3.33332 6.56246 3.97916 5.27079 5.27082C3.97913 6.56249 3.33329 8.13888 3.33329 9.99999C3.33329 11.8611 3.97913 13.4375 5.27079 14.7292C6.56246 16.0208 8.13885 16.6667 9.99996 16.6667C10.7083 16.6667 11.3854 16.5625 12.0312 16.3542C12.677 16.1458 13.2708 15.8542 13.8125 15.4792C13.9791 15.7153 14.184 15.9236 14.427 16.1042C14.6701 16.2847 14.9305 16.4236 15.2083 16.5208C14.5 17.0903 13.7048 17.5347 12.8229 17.8542C11.9409 18.1736 11 18.3333 9.99996 18.3333ZM16.0416 15C15.75 15 15.5034 14.8993 15.302 14.6979C15.1007 14.4965 15 14.25 15 13.9583C15 13.6667 15.1007 13.4201 15.302 13.2187C15.5034 13.0174 15.75 12.9167 16.0416 12.9167C16.3333 12.9167 16.5798 13.0174 16.7812 13.2187C16.9826 13.4201 17.0833 13.6667 17.0833 13.9583C17.0833 14.25 16.9826 14.4965 16.7812 14.6979C16.5798 14.8993 16.3333 15 16.0416 15ZM10.8333 9.66666L13.3333 12.1667C13.4861 12.3194 13.5625 12.5139 13.5625 12.75C13.5625 12.9861 13.4861 13.1805 13.3333 13.3333C13.1805 13.4861 12.9861 13.5625 12.75 13.5625C12.5138 13.5625 12.3194 13.4861 12.1666 13.3333L9.41663 10.5833C9.33329 10.5 9.27079 10.4062 9.22913 10.3021C9.18746 10.1979 9.16663 10.0903 9.16663 9.97916V6.66666C9.16663 6.43055 9.24649 6.23263 9.40621 6.07291C9.56593 5.91318 9.76385 5.83332 9.99996 5.83332C10.2361 5.83332 10.434 5.91318 10.5937 6.07291C10.7534 6.23263 10.8333 6.43055 10.8333 6.66666V9.66666Z" fill="#1C1B1F"/>
</g>
</g>
</svg>
