<svg width="20" height="20" viewBox="0 0 20 20" fill="none" xmlns="http://www.w3.org/2000/svg">
<g id="icon/payments">
<mask id="mask0_6_351" style="mask-type:alpha" maskUnits="userSpaceOnUse" x="0" y="0" width="20" height="20">
<rect id="Bounding box" width="20" height="20" fill="#D9D9D9"/>
</mask>
<g mask="url(#mask0_6_351)">
<path id="payments" d="M2.49998 16.6667C2.04165 16.6667 1.64929 16.5035 1.3229 16.1771C0.996507 15.8507 0.833313 15.4583 0.833313 15V6.66668C0.833313 6.43057 0.913174 6.23265 1.0729 6.07293C1.23262 5.9132 1.43054 5.83334 1.66665 5.83334C1.90276 5.83334 2.10067 5.9132 2.2604 6.07293C2.42012 6.23265 2.49998 6.43057 2.49998 6.66668V15H15.8333C16.0694 15 16.2673 15.0799 16.4271 15.2396C16.5868 15.3993 16.6666 15.5972 16.6666 15.8333C16.6666 16.0695 16.5868 16.2674 16.4271 16.4271C16.2673 16.5868 16.0694 16.6667 15.8333 16.6667H2.49998ZM5.83331 13.3333C5.37498 13.3333 4.98262 13.1701 4.65623 12.8438C4.32984 12.5174 4.16665 12.125 4.16665 11.6667V5.00001C4.16665 4.54168 4.32984 4.14932 4.65623 3.82293C4.98262 3.49654 5.37498 3.33334 5.83331 3.33334H17.5C17.9583 3.33334 18.3507 3.49654 18.6771 3.82293C19.0035 4.14932 19.1666 4.54168 19.1666 5.00001V11.6667C19.1666 12.125 19.0035 12.5174 18.6771 12.8438C18.3507 13.1701 17.9583 13.3333 17.5 13.3333H5.83331ZM7.49998 11.6667C7.49998 11.2083 7.33679 10.816 7.0104 10.4896C6.68401 10.1632 6.29165 10 5.83331 10V11.6667H7.49998ZM15.8333 11.6667H17.5V10C17.0416 10 16.6493 10.1632 16.3229 10.4896C15.9965 10.816 15.8333 11.2083 15.8333 11.6667ZM11.6666 10.8333C12.3611 10.8333 12.9514 10.5903 13.4375 10.1042C13.9236 9.61807 14.1666 9.02779 14.1666 8.33334C14.1666 7.6389 13.9236 7.04862 13.4375 6.56251C12.9514 6.0764 12.3611 5.83334 11.6666 5.83334C10.9722 5.83334 10.3819 6.0764 9.89581 6.56251C9.4097 7.04862 9.16665 7.6389 9.16665 8.33334C9.16665 9.02779 9.4097 9.61807 9.89581 10.1042C10.3819 10.5903 10.9722 10.8333 11.6666 10.8333ZM5.83331 6.66668C6.29165 6.66668 6.68401 6.50348 7.0104 6.17709C7.33679 5.8507 7.49998 5.45834 7.49998 5.00001H5.83331V6.66668ZM17.5 6.66668V5.00001H15.8333C15.8333 5.45834 15.9965 5.8507 16.3229 6.17709C16.6493 6.50348 17.0416 6.66668 17.5 6.66668Z" fill="#1C1B1F"/>
</g>
</g>
</svg>
