<svg width="20" height="20" viewBox="0 0 20 20" fill="none" xmlns="http://www.w3.org/2000/svg">
<g id="icon/person_add">
<mask id="mask0_6_473" style="mask-type:alpha" maskUnits="userSpaceOnUse" x="0" y="0" width="20" height="20">
<rect id="Bounding box" width="20" height="20" fill="#D9D9D9"/>
</mask>
<g mask="url(#mask0_6_473)">
<path id="person_add" d="M15 9.16668H13.3334C13.0973 9.16668 12.8993 9.08682 12.7396 8.92709C12.5799 8.76737 12.5 8.56945 12.5 8.33334C12.5 8.09723 12.5799 7.89932 12.7396 7.73959C12.8993 7.57987 13.0973 7.50001 13.3334 7.50001H15V5.83334C15 5.59723 15.0799 5.39932 15.2396 5.23959C15.3993 5.07987 15.5973 5.00001 15.8334 5.00001C16.0695 5.00001 16.2674 5.07987 16.4271 5.23959C16.5868 5.39932 16.6667 5.59723 16.6667 5.83334V7.50001H18.3334C18.5695 7.50001 18.7674 7.57987 18.9271 7.73959C19.0868 7.89932 19.1667 8.09723 19.1667 8.33334C19.1667 8.56945 19.0868 8.76737 18.9271 8.92709C18.7674 9.08682 18.5695 9.16668 18.3334 9.16668H16.6667V10.8333C16.6667 11.0695 16.5868 11.2674 16.4271 11.4271C16.2674 11.5868 16.0695 11.6667 15.8334 11.6667C15.5973 11.6667 15.3993 11.5868 15.2396 11.4271C15.0799 11.2674 15 11.0695 15 10.8333V9.16668ZM7.50004 10C6.58337 10 5.79865 9.67362 5.14587 9.02084C4.4931 8.36807 4.16671 7.58334 4.16671 6.66668C4.16671 5.75001 4.4931 4.96529 5.14587 4.31251C5.79865 3.65973 6.58337 3.33334 7.50004 3.33334C8.41671 3.33334 9.20143 3.65973 9.85421 4.31251C10.507 4.96529 10.8334 5.75001 10.8334 6.66668C10.8334 7.58334 10.507 8.36807 9.85421 9.02084C9.20143 9.67362 8.41671 10 7.50004 10ZM0.833374 15V14.3333C0.833374 13.8611 0.954902 13.4271 1.19796 13.0313C1.44101 12.6354 1.76393 12.3333 2.16671 12.125C3.02782 11.6945 3.90282 11.3715 4.79171 11.1563C5.6806 10.941 6.58337 10.8333 7.50004 10.8333C8.41671 10.8333 9.31949 10.941 10.2084 11.1563C11.0973 11.3715 11.9723 11.6945 12.8334 12.125C13.2362 12.3333 13.5591 12.6354 13.8021 13.0313C14.0452 13.4271 14.1667 13.8611 14.1667 14.3333V15C14.1667 15.4583 14.0035 15.8507 13.6771 16.1771C13.3507 16.5035 12.9584 16.6667 12.5 16.6667H2.50004C2.04171 16.6667 1.64935 16.5035 1.32296 16.1771C0.996569 15.8507 0.833374 15.4583 0.833374 15Z" fill="#1B1B1F"/>
</g>
</g>
</svg>
