<svg width="20" height="20" viewBox="0 0 20 20" fill="none" xmlns="http://www.w3.org/2000/svg">
<g id="icon/person">
<mask id="mask0_6_350" style="mask-type:alpha" maskUnits="userSpaceOnUse" x="0" y="0" width="20" height="20">
<rect id="Bounding box" width="20" height="20" fill="#D9D9D9"/>
</mask>
<g mask="url(#mask0_6_350)">
<path id="person" d="M9.99998 10C9.08331 10 8.29859 9.67362 7.64581 9.02084C6.99304 8.36807 6.66665 7.58334 6.66665 6.66668C6.66665 5.75001 6.99304 4.96529 7.64581 4.31251C8.29859 3.65973 9.08331 3.33334 9.99998 3.33334C10.9166 3.33334 11.7014 3.65973 12.3541 4.31251C13.0069 4.96529 13.3333 5.75001 13.3333 6.66668C13.3333 7.58334 13.0069 8.36807 12.3541 9.02084C11.7014 9.67362 10.9166 10 9.99998 10ZM3.33331 15V14.3333C3.33331 13.8611 3.45484 13.4271 3.6979 13.0313C3.94095 12.6354 4.26387 12.3333 4.66665 12.125C5.52776 11.6945 6.40276 11.3715 7.29165 11.1563C8.18054 10.941 9.08331 10.8333 9.99998 10.8333C10.9166 10.8333 11.8194 10.941 12.7083 11.1563C13.5972 11.3715 14.4722 11.6945 15.3333 12.125C15.7361 12.3333 16.059 12.6354 16.3021 13.0313C16.5451 13.4271 16.6666 13.8611 16.6666 14.3333V15C16.6666 15.4583 16.5035 15.8507 16.1771 16.1771C15.8507 16.5035 15.4583 16.6667 15 16.6667H4.99998C4.54165 16.6667 4.14929 16.5035 3.8229 16.1771C3.49651 15.8507 3.33331 15.4583 3.33331 15Z" fill="#1C1B1F"/>
</g>
</g>
</svg>
