<svg width="20" height="20" viewBox="0 0 20 20" fill="none" xmlns="http://www.w3.org/2000/svg">
<g id="icon/share">
<mask id="mask0_32_473" style="mask-type:alpha" maskUnits="userSpaceOnUse" x="0" y="0" width="20" height="20">
<rect id="Bounding box" width="20" height="20" fill="#D9D9D9"/>
</mask>
<g mask="url(#mask0_32_473)">
<path id="share" d="M15 18.3333C14.3056 18.3333 13.7153 18.0903 13.2292 17.6042C12.7431 17.118 12.5 16.5278 12.5 15.8333C12.5 15.7361 12.5069 15.6354 12.5208 15.5312C12.5347 15.4271 12.5556 15.3333 12.5833 15.25L6.70833 11.8333C6.47222 12.0417 6.20833 12.2049 5.91667 12.3229C5.625 12.441 5.31944 12.5 5 12.5C4.30556 12.5 3.71528 12.2569 3.22917 11.7708C2.74306 11.2847 2.5 10.6944 2.5 9.99999C2.5 9.30555 2.74306 8.71527 3.22917 8.22916C3.71528 7.74305 4.30556 7.49999 5 7.49999C5.31944 7.49999 5.625 7.55902 5.91667 7.67707C6.20833 7.79513 6.47222 7.95832 6.70833 8.16666L12.5833 4.74999C12.5556 4.66666 12.5347 4.57291 12.5208 4.46874C12.5069 4.36457 12.5 4.26388 12.5 4.16666C12.5 3.47221 12.7431 2.88193 13.2292 2.39582C13.7153 1.90971 14.3056 1.66666 15 1.66666C15.6944 1.66666 16.2847 1.90971 16.7708 2.39582C17.2569 2.88193 17.5 3.47221 17.5 4.16666C17.5 4.8611 17.2569 5.45138 16.7708 5.93749C16.2847 6.4236 15.6944 6.66666 15 6.66666C14.6806 6.66666 14.375 6.60763 14.0833 6.48957C13.7917 6.37152 13.5278 6.20832 13.2917 5.99999L7.41667 9.41666C7.44444 9.49999 7.46528 9.59374 7.47917 9.69791C7.49306 9.80207 7.5 9.90277 7.5 9.99999C7.5 10.0972 7.49306 10.1979 7.47917 10.3021C7.46528 10.4062 7.44444 10.5 7.41667 10.5833L13.2917 14C13.5278 13.7917 13.7917 13.6285 14.0833 13.5104C14.375 13.3924 14.6806 13.3333 15 13.3333C15.6944 13.3333 16.2847 13.5764 16.7708 14.0625C17.2569 14.5486 17.5 15.1389 17.5 15.8333C17.5 16.5278 17.2569 17.118 16.7708 17.6042C16.2847 18.0903 15.6944 18.3333 15 18.3333Z" fill="#1C1B1F"/>
</g>
</g>
</svg>
