<svg width="20" height="20" viewBox="0 0 20 20" fill="none" xmlns="http://www.w3.org/2000/svg">
<g id="icon/wins">
<mask id="mask0_32_433" style="mask-type:alpha" maskUnits="userSpaceOnUse" x="0" y="0" width="20" height="20">
<rect id="Bounding box" width="20" height="20" fill="#D9D9D9"/>
</mask>
<g mask="url(#mask0_32_433)">
<path id="hotel_class" d="M13.9167 12.9167L17.0833 10.2083L17.625 10.25C17.8611 10.2778 18.0451 10.375 18.1771 10.5417C18.309 10.7083 18.375 10.8889 18.375 11.0833C18.375 11.1944 18.3542 11.3056 18.3125 11.4167C18.2708 11.5278 18.1944 11.625 18.0833 11.7083L15.9167 13.6042L16.5625 16.4167C16.5764 16.4444 16.5833 16.4757 16.5833 16.5104V16.6042C16.5833 16.8403 16.5 17.0382 16.3333 17.1979C16.1667 17.3576 15.9722 17.4375 15.75 17.4375C15.6806 17.4375 15.6076 17.4271 15.5312 17.4062C15.4549 17.3854 15.3819 17.3542 15.3125 17.3125L14.875 17.0417L13.9167 12.9167ZM11.9583 6.83333L11.0833 4.79167L11.2708 4.33333C11.3403 4.16667 11.4479 4.03819 11.5938 3.94792C11.7396 3.85764 11.8889 3.8125 12.0417 3.8125C12.1944 3.8125 12.3438 3.85417 12.4896 3.9375C12.6354 4.02083 12.7431 4.14583 12.8125 4.3125L13.9583 7.02083L11.9583 6.83333ZM4.04167 16.4167L4.95833 12.4792L1.89583 9.83333C1.78472 9.75 1.71181 9.65278 1.67708 9.54167C1.64236 9.43056 1.625 9.31944 1.625 9.20833C1.625 9.01389 1.69097 8.83333 1.82292 8.66667C1.95486 8.5 2.13889 8.40278 2.375 8.375L6.41667 8.02083L7.97917 4.3125C8.04861 4.14583 8.15625 4.02083 8.30208 3.9375C8.44792 3.85417 8.59722 3.8125 8.75 3.8125C8.90278 3.8125 9.05208 3.85417 9.19792 3.9375C9.34375 4.02083 9.45139 4.14583 9.52083 4.3125L11.0833 8.02083L15.125 8.375C15.3611 8.40278 15.5451 8.5 15.6771 8.66667C15.809 8.83333 15.875 9.01389 15.875 9.20833C15.875 9.31944 15.8576 9.43056 15.8229 9.54167C15.7882 9.65278 15.7153 9.75 15.6042 9.83333L12.5417 12.4792L13.4583 16.4167C13.4722 16.4583 13.4792 16.5208 13.4792 16.6042C13.4792 16.8403 13.3958 17.0382 13.2292 17.1979C13.0625 17.3576 12.8681 17.4375 12.6458 17.4375C12.6042 17.4375 12.4583 17.3958 12.2083 17.3125L8.75 15.2292L5.29167 17.3125C5.22222 17.3542 5.14931 17.3854 5.07292 17.4062C4.99653 17.4271 4.92361 17.4375 4.85417 17.4375C4.60417 17.4375 4.38889 17.3368 4.20833 17.1354C4.02778 16.934 3.97222 16.6944 4.04167 16.4167Z" fill="#1C1B1F"/>
</g>
</g>
</svg>
