<svg width="548" height="548" viewBox="0 0 548 548" fill="none" xmlns="http://www.w3.org/2000/svg">
<path fill-rule="evenodd" clip-rule="evenodd" d="M274 547C424.774 547 547 424.774 547 274C547 123.226 424.774 1 274 1C123.226 1 1 123.226 1 274C1 424.774 123.226 547 274 547ZM274 548C425.326 548 548 425.326 548 274C548 122.674 425.326 0 274 0C122.674 0 0 122.674 0 274C0 425.326 122.674 548 274 548Z" fill="#2E2E38"/>
<path d="M30 384.5C30 380.91 27.0899 378 23.5 378C19.9101 378 17 380.91 17 384.5C17 388.09 19.9101 391 23.5 391C27.0899 391 30 388.09 30 384.5Z" fill="#2E2E38"/>
<path fill-rule="evenodd" clip-rule="evenodd" d="M274 359C320.944 359 359 320.944 359 274C359 227.056 320.944 189 274 189C227.056 189 189 227.056 189 274C189 320.944 227.056 359 274 359ZM274 360C321.496 360 360 321.496 360 274C360 226.504 321.496 188 274 188C226.504 188 188 226.504 188 274C188 321.496 226.504 360 274 360Z" fill="#2E2E38"/>
<path d="M306 193.5C306 189.91 303.09 187 299.5 187C295.91 187 293 189.91 293 193.5C293 197.09 295.91 200 299.5 200C303.09 200 306 197.09 306 193.5Z" fill="#2E2E38"/>
<path fill-rule="evenodd" clip-rule="evenodd" d="M274 485.129C390.603 485.129 485.129 390.603 485.129 274C485.129 157.397 390.603 62.871 274 62.871C157.397 62.871 62.8711 157.397 62.8711 274C62.8711 390.603 157.397 485.129 274 485.129ZM274 486.129C391.156 486.129 486.129 391.156 486.129 274C486.129 156.844 391.156 61.871 274 61.871C156.845 61.871 61.8711 156.844 61.8711 274C61.8711 391.156 156.845 486.129 274 486.129Z" fill="#2E2E38"/>
<path d="M489.104 241.059C489.104 237.469 486.193 234.559 482.604 234.559C479.014 234.559 476.104 237.469 476.104 241.059C476.104 244.649 479.014 247.559 482.604 247.559C486.193 247.559 489.104 244.649 489.104 241.059Z" fill="#2E2E38"/>
</svg>
