<?xml version="1.0" encoding="UTF-8"?>
<svg id="Layer_2" data-name="Layer 2" xmlns="http://www.w3.org/2000/svg" viewBox="0 0 512 512">
  <defs>
    <style>
      .cls-1 {
        fill: #18181b;
      }

      .cls-1, .cls-2 {
        stroke-width: 0px;
      }

      .cls-2 {
        fill: #eed7ff;
      }
    </style>
  </defs>
  <g id="Layer_1-2" data-name="Layer 1">
    <g>
      <g id="Background">
        <rect class="cls-1" width="512" height="512"/>
      </g>
      <g>
        <g>
          <path class="cls-2" d="m405.66,348.54h-68.23c.73-16.82-6.04-34.22-19.15-45.25-25.55-21.5-59.56-10.29-90.16-13.58q.17-34.29.35-68.57c32.62-3.22,74.2,10.67,97.81-18.45,26.57-32.77,8.05-80.16-31.33-90.5V43.26c104.98,15.25,147.62,136.03,73.1,213.73,24.12,23.33,38.41,57.99,37.59,91.55Z"/>
          <path class="cls-2" d="m107.35,40.83h169.87q-.17,35.33-.35,70.66-84.76.17-169.52.35V40.83Z"/>
          <g>
            <path class="cls-2" d="m106.65,128.55q36.72.17,73.45.35l-1.04,253.06-72.75-1.04q.17-126.18.35-252.37Z"/>
            <path class="cls-2" d="m107.35,399.36h146.9l.35,70.66-147.24,1.04v-71.71Z"/>
          </g>
          <path class="cls-2" d="m405.66,348.54c-1.72,70.78-61.75,125.29-131.93,122.53-.37-.15-1.64-2.11-1.74-2.44-.98-3.23.24-58.22.7-67.53,2.92-3.65,23.89,4.89,44.9-11.49,12.67-9.87,19.16-25.28,19.84-41.08h68.23Z"/>
        </g>
        <path class="cls-2" d="m198.55,128.55c20.75,1.25,75.38-1.95,89.81.7,39.45,7.24,41.68,63.22,6.27,73.8-14.47,4.32-83.55-1.47-85.28,2.44v101.64c19.08,1.87,65.34-1.33,77.62.35,22.83,3.12,42.99,34.23,26.11,59.52-4.08,6.11-15.41,14.57-22.63,15.66-9.92,1.5-73.73-.87-92.94-.35l1.04-253.76Z"/>
      </g>
    </g>
  </g>
</svg>