<?xml version="1.0" encoding="utf-8"?>
<!-- Generator: Adobe Illustrator 28.0.0, SVG Export Plug-In . SVG Version: 6.00 Build 0)  -->
<svg version="1.1" id="Layer_1" xmlns="http://www.w3.org/2000/svg" xmlns:xlink="http://www.w3.org/1999/xlink" x="0px" y="0px"
	 viewBox="0 0 1190.55 841.89" style="enable-background:new 0 0 1190.55 841.89;" xml:space="preserve">
<style type="text/css">
	.st0{fill:#CCB3D7;}
	.st1{fill:#1E1D1E;}
</style>
<g>
	<path class="st0" d="M1034.45,618.44H156.73c-2.51,0-4.55-2.04-4.55-4.55V227.42c0-2.51,2.04-4.55,4.55-4.55h877.73
		c2.51,0,4.55,2.04,4.55,4.55v386.47C1039,616.4,1036.96,618.44,1034.45,618.44z"/>
	<path class="st1" d="M456.71,500.7l114.1-114.1c13.69-13.69,35.87-13.69,49.56,0l114.1,114.1c5.08,5.08,11.96,7.93,19.14,7.93
		h42.81c3.83,0,5.75-4.63,3.04-7.34L609.34,311.17c-7.6-7.6-19.91-7.6-27.51,0L391.72,501.29c-2.71,2.71-0.79,7.34,3.04,7.34h42.81
		C444.75,508.63,451.63,505.78,456.71,500.7z"/>
</g>
</svg>
